<svg xmlns="http://www.w3.org/2000/svg" xmlns:xlink="http://www.w3.org/1999/xlink" width="500" zoomAndPan="magnify" viewBox="0 0 375 374.999991" height="500" preserveAspectRatio="xMidYMid meet" version="1.0"><defs><g/></defs><g fill="#ffffff" fill-opacity="1"><g transform="translate(28.881517, 315.856666)"><g><path d="M 26.703125 -2.1875 C 19.867188 -2.1875 14.5 -4.320312 10.59375 -8.59375 C 6.695312 -12.863281 3.957031 -18.164062 2.375 -24.5 C 0.789062 -30.84375 0 -37.0625 0 -43.15625 C 0.488281 -60.96875 4.023438 -79.195312 10.609375 -97.84375 C 17.191406 -116.5 25.722656 -134.238281 36.203125 -151.0625 C 46.691406 -167.894531 58.035156 -182.410156 70.234375 -194.609375 C 70.722656 -195.085938 71.207031 -195.570312 71.6875 -196.0625 C 72.175781 -196.550781 72.179688 -197.039062 71.703125 -197.53125 C 71.453125 -198.257812 71.082031 -198.625 70.59375 -198.625 C 70.351562 -198.625 69.5 -198.378906 68.03125 -197.890625 C 66.8125 -197.648438 65.46875 -197.40625 64 -197.15625 C 62.539062 -196.914062 61.203125 -196.675781 59.984375 -196.4375 C 57.054688 -195.695312 54.132812 -195.328125 51.21875 -195.328125 L 45.359375 -195.328125 C 43.160156 -195.328125 41.695312 -195.453125 40.96875 -195.703125 C 36.820312 -196.429688 33.894531 -198.378906 32.1875 -201.546875 C 30.476562 -204.722656 30.601562 -208.140625 32.5625 -211.796875 C 33.53125 -213.503906 34.441406 -215.023438 35.296875 -216.359375 C 36.148438 -217.703125 37.066406 -218.984375 38.046875 -220.203125 C 46.828125 -230.691406 56.457031 -239.898438 66.9375 -247.828125 C 77.425781 -255.753906 89.253906 -261.789062 102.421875 -265.9375 C 103.890625 -266.175781 106.207031 -266.90625 109.375 -268.125 C 112.050781 -268.851562 114.367188 -269.21875 116.328125 -269.21875 C 116.816406 -269.21875 117.425781 -269.15625 118.15625 -269.03125 C 118.882812 -268.914062 119.738281 -268.738281 120.71875 -268.5 C 125.101562 -267.757812 127.414062 -265.195312 127.65625 -260.8125 C 128.144531 -256.175781 125.832031 -253.25 120.71875 -252.03125 C 120.46875 -252.03125 120.222656 -252.15625 119.984375 -252.40625 C 119.734375 -252.644531 119.488281 -252.765625 119.25 -252.765625 C 119.007812 -252.765625 118.765625 -252.882812 118.515625 -253.125 L 118.515625 -253.859375 C 118.765625 -254.109375 118.890625 -254.289062 118.890625 -254.40625 C 118.890625 -254.53125 118.890625 -254.59375 118.890625 -254.59375 C 120.109375 -255.8125 120.835938 -256.664062 121.078125 -257.15625 C 121.566406 -257.882812 122.300781 -258.613281 123.28125 -259.34375 C 124.007812 -260.082031 124.007812 -260.9375 123.28125 -261.90625 C 122.539062 -262.882812 121.195312 -263.375 119.25 -263.375 L 117.78125 -263.375 C 109.007812 -262.15625 99.625 -258.921875 89.625 -253.671875 C 79.625 -248.429688 70.234375 -242.273438 61.453125 -235.203125 C 52.671875 -228.128906 45.84375 -220.9375 40.96875 -213.625 C 39.75 -211.914062 38.585938 -210.269531 37.484375 -208.6875 C 36.390625 -207.101562 36.085938 -205.210938 36.578125 -203.015625 C 39.015625 -201.796875 41.695312 -201.1875 44.625 -201.1875 C 51.457031 -201.1875 57.921875 -201.976562 64.015625 -203.5625 C 70.109375 -205.144531 76.328125 -206.914062 82.671875 -208.875 C 86.328125 -209.601562 89.863281 -211.1875 93.28125 -213.625 C 98.644531 -217.039062 103.519531 -219.601562 107.90625 -221.3125 C 110.59375 -222.28125 113.644531 -222.765625 117.0625 -222.765625 C 119.007812 -222.765625 120.101562 -221.671875 120.34375 -219.484375 C 120.832031 -217.285156 120.347656 -215.820312 118.890625 -215.09375 C 118.640625 -214.84375 118.03125 -214.472656 117.0625 -213.984375 C 116.570312 -213.742188 116.140625 -213.5 115.765625 -213.25 C 115.398438 -213.007812 114.976562 -212.769531 114.5 -212.53125 C 112.0625 -211.550781 109.679688 -210.632812 107.359375 -209.78125 C 105.046875 -208.925781 102.546875 -208.132812 99.859375 -207.40625 C 93.765625 -205.457031 88.15625 -202.285156 83.03125 -197.890625 C 69.625 -185.703125 57.367188 -171.375 46.265625 -154.90625 C 35.171875 -138.445312 26.085938 -121.070312 19.015625 -102.78125 C 11.941406 -84.5 7.554688 -66.085938 5.859375 -47.546875 C 5.367188 -42.921875 5.363281 -38.347656 5.84375 -33.828125 C 6.332031 -29.316406 7.1875 -24.867188 8.40625 -20.484375 C 8.65625 -19.992188 8.898438 -19.441406 9.140625 -18.828125 C 9.390625 -18.222656 9.632812 -17.675781 9.875 -17.1875 C 10.125 -16.695312 10.304688 -16.207031 10.421875 -15.71875 C 10.546875 -15.238281 10.726562 -14.753906 10.96875 -14.265625 C 13.40625 -9.628906 17.066406 -7.3125 21.953125 -7.3125 C 29.503906 -7.3125 37.363281 -9.8125 45.53125 -14.8125 C 53.707031 -19.8125 61.390625 -25.785156 68.578125 -32.734375 C 75.773438 -39.679688 81.570312 -45.960938 85.96875 -51.578125 C 101.8125 -69.867188 116.804688 -88.523438 130.953125 -107.546875 C 135.585938 -113.640625 140.160156 -119.613281 144.671875 -125.46875 C 149.179688 -131.320312 153.875 -137.050781 158.75 -142.65625 L 162.78125 -147.046875 C 163.757812 -148.023438 164.613281 -148.515625 165.34375 -148.515625 C 165.832031 -148.515625 166.195312 -148.390625 166.4375 -148.140625 C 167.414062 -147.660156 167.960938 -146.867188 168.078125 -145.765625 C 168.203125 -144.671875 167.898438 -143.757812 167.171875 -143.03125 C 165.703125 -141.070312 164.175781 -139.175781 162.59375 -137.34375 C 161.007812 -135.519531 159.363281 -133.632812 157.65625 -131.6875 C 154.976562 -128.519531 152.359375 -125.347656 149.796875 -122.171875 C 147.234375 -119.003906 144.734375 -115.710938 142.296875 -112.296875 C 139.859375 -108.878906 137.421875 -105.523438 134.984375 -102.234375 C 132.546875 -98.941406 130.101562 -95.59375 127.65625 -92.1875 C 124.25 -87.789062 120.773438 -83.394531 117.234375 -79 C 113.703125 -74.613281 110.226562 -70.347656 106.8125 -66.203125 C 103.394531 -61.816406 99.859375 -57.488281 96.203125 -53.21875 C 92.546875 -48.957031 88.890625 -44.753906 85.234375 -40.609375 C 80.359375 -35.484375 74.75 -29.929688 68.40625 -23.953125 C 62.0625 -17.984375 55.351562 -12.863281 48.28125 -8.59375 C 41.207031 -4.320312 34.015625 -2.1875 26.703125 -2.1875 Z M 26.703125 -2.1875 "/></g></g></g><g fill="#ffffff" fill-opacity="1"><g transform="translate(188.364392, 315.856666)"><g><path d="M 114.125 -48.65625 C 110.226562 -48.65625 107.300781 -50.484375 105.34375 -54.140625 C 102.664062 -59.992188 100.898438 -66.457031 100.046875 -73.53125 C 99.191406 -80.601562 98.644531 -87.304688 98.40625 -93.640625 C 97.914062 -104.617188 98.097656 -115.472656 98.953125 -126.203125 C 99.804688 -136.929688 101.082031 -147.78125 102.78125 -158.75 C 104.488281 -171.1875 106.625 -183.316406 109.1875 -195.140625 C 111.75 -206.972656 114.613281 -218.988281 117.78125 -231.1875 C 118.03125 -232.15625 118.210938 -233.066406 118.328125 -233.921875 C 118.453125 -234.773438 118.515625 -235.445312 118.515625 -235.9375 C 118.515625 -236.1875 118.453125 -236.429688 118.328125 -236.671875 C 118.210938 -236.910156 118.03125 -237.273438 117.78125 -237.765625 C 116.5625 -237.035156 115.585938 -236.0625 114.859375 -234.84375 C 114.128906 -233.625 113.398438 -232.40625 112.671875 -231.1875 C 103.398438 -214.84375 96.203125 -197.34375 91.078125 -178.6875 C 85.960938 -160.03125 81.332031 -141.5625 77.1875 -123.28125 C 76.695312 -120.351562 76.144531 -117.425781 75.53125 -114.5 C 74.925781 -111.570312 74.378906 -108.765625 73.890625 -106.078125 C 73.398438 -103.148438 72.789062 -100.222656 72.0625 -97.296875 C 71.332031 -94.367188 70.722656 -91.441406 70.234375 -88.515625 C 69.992188 -87.296875 69.75 -86.140625 69.5 -85.046875 C 69.257812 -83.953125 68.894531 -82.796875 68.40625 -81.578125 C 68.15625 -80.597656 67.847656 -79.5 67.484375 -78.28125 C 67.117188 -77.0625 66.691406 -75.84375 66.203125 -74.625 C 64.984375 -71.9375 63.398438 -70.472656 61.453125 -70.234375 C 57.304688 -70.234375 54.441406 -71.695312 52.859375 -74.625 C 51.273438 -77.550781 50.484375 -80.84375 50.484375 -84.5 C 49.265625 -93.03125 48.894531 -101.320312 49.375 -109.375 C 50.601562 -137.664062 54.628906 -165.46875 61.453125 -192.78125 C 62.671875 -197.40625 63.828125 -202.035156 64.921875 -206.671875 C 66.023438 -211.304688 67.1875 -215.941406 68.40625 -220.578125 C 69.625 -225.210938 70.78125 -229.84375 71.875 -234.46875 C 72.976562 -239.101562 74.015625 -243.738281 74.984375 -248.375 C 75.234375 -249.351562 75.539062 -250.390625 75.90625 -251.484375 C 76.269531 -252.578125 76.570312 -253.613281 76.8125 -254.59375 C 77.550781 -256.300781 77.675781 -258.492188 77.1875 -261.171875 C 75.476562 -260.441406 74.316406 -259.40625 73.703125 -258.0625 C 73.097656 -256.726562 72.550781 -255.453125 72.0625 -254.234375 C 65.226562 -241.796875 59.128906 -227.34375 53.765625 -210.875 C 48.398438 -194.414062 43.765625 -177.769531 39.859375 -160.9375 C 35.960938 -144.113281 32.921875 -128.753906 30.734375 -114.859375 C 30.242188 -111.691406 29.691406 -108.644531 29.078125 -105.71875 C 28.472656 -102.789062 27.925781 -99.863281 27.4375 -96.9375 C 26.945312 -93.769531 26.335938 -90.722656 25.609375 -87.796875 C 24.878906 -84.867188 24.269531 -81.816406 23.78125 -78.640625 C 23.039062 -74.984375 21.941406 -71.445312 20.484375 -68.03125 C 19.023438 -65.113281 16.707031 -63.65625 13.53125 -63.65625 C 11.09375 -63.65625 8.898438 -64.75 6.953125 -66.9375 C 5.484375 -69.132812 4.257812 -72.242188 3.28125 -76.265625 C 2.3125 -80.285156 1.582031 -84.429688 1.09375 -88.703125 C 0.601562 -92.972656 0.359375 -96.328125 0.359375 -98.765625 C -0.117188 -108.035156 -0.0546875 -117.425781 0.546875 -126.9375 C 1.160156 -136.445312 1.953125 -145.832031 2.921875 -155.09375 C 4.878906 -173.875 8.351562 -192.285156 13.34375 -210.328125 C 18.34375 -228.378906 24.015625 -246.304688 30.359375 -264.109375 L 32.5625 -268.5 C 32.5625 -269.226562 32.925781 -269.59375 33.65625 -269.59375 C 34.382812 -269.34375 35.113281 -268.851562 35.84375 -268.125 C 36.582031 -266.90625 36.828125 -265.804688 36.578125 -264.828125 C 36.335938 -263.859375 35.972656 -262.765625 35.484375 -261.546875 L 27.796875 -236.671875 C 25.117188 -228.140625 22.679688 -219.601562 20.484375 -211.0625 C 18.285156 -202.53125 16.332031 -193.992188 14.625 -185.453125 C 11.707031 -169.609375 9.695312 -153.878906 8.59375 -138.265625 C 7.5 -122.660156 7.4375 -107.300781 8.40625 -92.1875 C 8.65625 -90.476562 8.898438 -88.828125 9.140625 -87.234375 C 9.390625 -85.648438 9.632812 -84.003906 9.875 -82.296875 C 10.363281 -78.890625 11.21875 -75.722656 12.4375 -72.796875 C 13.65625 -73.285156 14.445312 -73.953125 14.8125 -74.796875 C 15.175781 -75.648438 15.484375 -76.566406 15.734375 -77.546875 C 16.460938 -80.472656 17.128906 -83.398438 17.734375 -86.328125 C 18.347656 -89.253906 18.898438 -92.179688 19.390625 -95.109375 C 19.878906 -98.035156 20.425781 -100.960938 21.03125 -103.890625 C 21.644531 -106.816406 22.191406 -109.863281 22.671875 -113.03125 C 25.597656 -129.375 29.253906 -146.628906 33.640625 -164.796875 C 38.035156 -182.960938 43.28125 -200.882812 49.375 -218.5625 C 55.476562 -236.238281 62.675781 -252.148438 70.96875 -266.296875 C 71.695312 -267.515625 72.425781 -268.671875 73.15625 -269.765625 C 73.882812 -270.867188 74.738281 -272.03125 75.71875 -273.25 C 76.9375 -274.46875 78.035156 -275.078125 79.015625 -275.078125 C 80.472656 -275.078125 81.691406 -274.222656 82.671875 -272.515625 C 83.398438 -271.296875 83.828125 -270.195312 83.953125 -269.21875 C 84.078125 -268.25 84.140625 -267.15625 84.140625 -265.9375 C 84.140625 -262.519531 83.832031 -259.285156 83.21875 -256.234375 C 82.601562 -253.191406 81.929688 -250.207031 81.203125 -247.28125 C 79.742188 -240.207031 78.21875 -233.316406 76.625 -226.609375 C 75.039062 -219.898438 73.398438 -213.132812 71.703125 -206.3125 C 69.015625 -195.332031 66.507812 -184.296875 64.1875 -173.203125 C 61.875 -162.109375 60.109375 -150.953125 58.890625 -139.734375 C 57.921875 -131.929688 57.191406 -124.066406 56.703125 -116.140625 C 56.210938 -108.210938 56.210938 -100.347656 56.703125 -92.546875 C 56.941406 -91.566406 57.0625 -90.585938 57.0625 -89.609375 C 57.0625 -88.640625 57.1875 -87.664062 57.4375 -86.6875 C 57.675781 -85.71875 57.851562 -84.679688 57.96875 -83.578125 C 58.09375 -82.484375 58.28125 -81.328125 58.53125 -80.109375 C 59.75 -80.597656 60.539062 -81.269531 60.90625 -82.125 C 61.269531 -82.976562 61.570312 -83.890625 61.8125 -84.859375 L 67.3125 -110.109375 C 70.238281 -123.515625 73.285156 -136.863281 76.453125 -150.15625 C 79.617188 -163.445312 83.398438 -176.675781 87.796875 -189.84375 C 88.765625 -193.019531 90.40625 -197.410156 92.71875 -203.015625 C 95.039062 -208.628906 97.601562 -214.601562 100.40625 -220.9375 C 103.21875 -227.28125 106.144531 -232.953125 109.1875 -237.953125 C 112.238281 -242.953125 114.984375 -246.304688 117.421875 -248.015625 C 118.878906 -248.492188 119.609375 -248.734375 119.609375 -248.734375 C 120.585938 -248.734375 121.441406 -248.367188 122.171875 -247.640625 C 124.128906 -244.960938 125.109375 -242.644531 125.109375 -240.6875 C 124.859375 -239.957031 124.734375 -239.226562 124.734375 -238.5 C 124.734375 -237.769531 124.734375 -237.039062 124.734375 -236.3125 C 124.734375 -235.082031 124.488281 -233.738281 124 -232.28125 C 123.519531 -229.113281 122.910156 -226.003906 122.171875 -222.953125 C 121.441406 -219.898438 120.710938 -216.910156 119.984375 -213.984375 C 119.253906 -210.816406 118.519531 -207.707031 117.78125 -204.65625 C 117.050781 -201.613281 116.441406 -198.503906 115.953125 -195.328125 C 113.023438 -180.703125 110.644531 -166.132812 108.8125 -151.625 C 106.988281 -137.113281 105.957031 -122.421875 105.71875 -107.546875 C 105.46875 -99.984375 105.585938 -92.539062 106.078125 -85.21875 C 106.566406 -77.90625 107.785156 -70.59375 109.734375 -63.28125 C 109.984375 -62.300781 110.164062 -61.445312 110.28125 -60.71875 C 110.40625 -59.988281 110.59375 -59.132812 110.84375 -58.15625 C 111.320312 -55.96875 112.414062 -54.75 114.125 -54.5 C 115.832031 -54.257812 117.175781 -54.992188 118.15625 -56.703125 C 118.644531 -57.429688 119.070312 -58.160156 119.4375 -58.890625 C 119.800781 -59.617188 120.226562 -60.226562 120.71875 -60.71875 C 124.125 -65.84375 127.164062 -71.023438 129.84375 -76.265625 C 132.53125 -81.515625 135.21875 -86.941406 137.90625 -92.546875 C 139.613281 -96.453125 141.195312 -100.289062 142.65625 -104.0625 C 144.125 -107.84375 145.710938 -111.6875 147.421875 -115.59375 C 148.878906 -119.488281 150.398438 -123.328125 151.984375 -127.109375 C 153.566406 -130.890625 155.210938 -134.734375 156.921875 -138.640625 C 157.171875 -139.128906 157.414062 -139.738281 157.65625 -140.46875 C 157.90625 -141.195312 158.148438 -141.804688 158.390625 -142.296875 C 158.628906 -142.785156 158.867188 -143.332031 159.109375 -143.9375 C 159.359375 -144.550781 159.609375 -145.101562 159.859375 -145.59375 C 161.078125 -147.539062 162.171875 -148.269531 163.140625 -147.78125 C 164.117188 -147.78125 164.972656 -147.289062 165.703125 -146.3125 C 166.429688 -145.34375 166.554688 -144.367188 166.078125 -143.390625 C 165.585938 -141.679688 165.035156 -139.972656 164.421875 -138.265625 C 163.816406 -136.554688 163.144531 -134.851562 162.40625 -133.15625 C 161.4375 -130.46875 160.398438 -127.78125 159.296875 -125.09375 C 158.203125 -122.414062 157.046875 -119.738281 155.828125 -117.0625 C 154.609375 -114.375 153.445312 -111.628906 152.34375 -108.828125 C 151.25 -106.023438 150.09375 -103.28125 148.875 -100.59375 C 145.707031 -93.03125 142.296875 -85.285156 138.640625 -77.359375 C 134.984375 -69.441406 130.59375 -62.3125 125.46875 -55.96875 C 124.007812 -53.769531 122.179688 -51.941406 119.984375 -50.484375 C 118.273438 -49.265625 116.320312 -48.65625 114.125 -48.65625 Z M 114.125 -48.65625 "/></g></g></g></svg>